<svg width="16" height="16" viewBox="0 0 16 16" fill="none" xmlns="http://www.w3.org/2000/svg">
    <path d="M11 5.753a.504.504 0 0 1-.5-.5v-.92c0-.7-.3-1.38-.82-1.853a2.474 2.474 0 0 0-1.927-.633c-1.2.113-2.253 1.34-2.253 2.62v.646c0 .274-.227.5-.5.5a.504.504 0 0 1-.5-.5V4.46c0-1.793 1.447-3.447 3.16-3.613 1-.094 1.96.22 2.693.893A3.513 3.513 0 0 1 11.5 4.333v.92c0 .274-.227.5-.5.5z" fill="#fff"/>
    <path d="M10 15.167H6c-3.08 0-3.653-1.434-3.8-2.827l-.5-3.993c-.073-.72-.1-1.753.6-2.527.6-.667 1.593-.987 3.033-.987h5.333c1.447 0 2.44.327 3.034.987.693.773.673 1.807.6 2.514l-.5 4.006c-.147 1.393-.72 2.827-3.8 2.827zM5.333 5.833c-1.126 0-1.9.22-2.293.66-.327.36-.433.914-.347 1.74l.5 3.994c.114 1.066.407 1.947 2.807 1.947h4c2.4 0 2.693-.874 2.806-1.934l.5-4.007c.087-.813-.02-1.366-.346-1.733-.394-.447-1.167-.667-2.294-.667H5.333z" fill="#fff"/>
    <path d="M10.279 8.766a.67.67 0 0 1-.674-.666c0-.367.3-.667.667-.667.367 0 .667.3.667.667a.663.663 0 0 1-.66.666zM5.615 8.766A.67.67 0 0 1 4.94 8.1c0-.367.3-.667.667-.667.367 0 .667.3.667.667a.663.663 0 0 1-.66.666z" fill="#fff"/>
</svg>
