<svg width="116" height="28" viewBox="0 0 116 28" fill="none" xmlns="http://www.w3.org/2000/svg">
    <path d="M12.6825 10.02H5.9025L5.1225 13.36H10.7225L10.2025 15.6H4.6025L3.3425 21H0.5825L3.6425 7.8H13.2025L12.6825 10.02Z" fill="white"/>
    <path d="M17.5062 1.99814L14.2417 13.4512L18.6594 13.6663L14.6327 27.382L25.5198 9.36512L20.3296 9.11237L26.211 0.199729L17.5062 1.99814Z" fill="url(#paint0_radial_2408_105386)"/>
    <path d="M21.1202 9.27437L26.7861 0.751345L26.2363 0.264861L20.2684 9.23504L21.1202 9.27437Z" fill="url(#paint1_radial_2408_105386)"/>
    <path d="M14.3398 13.377L14.8732 13.8608L18.4874 14.0302L14.59 27.3031L18.6193 13.5775L14.3398 13.377Z" fill="url(#paint2_radial_2408_105386)"/>
    <path d="M14.7032 27.4134L15.2496 27.8991L26.2401 9.79548L25.6938 9.30977L14.7032 27.4134Z" fill="url(#paint3_radial_2408_105386)"/>
    <g style="mix-blend-mode:screen">
        <path d="M20.2157 9.17412L26.2142 0.209519L17.3381 2.01693L14.4608 11.9772C16.2625 12.3098 18.2148 12.2062 20.1602 11.5808C21.6852 11.091 23.05 10.3237 24.2125 9.36691L20.2157 9.17412Z" fill="url(#paint4_linear_2408_105386)"/>
    </g>
    <path d="M23.1494 21L30.9494 7.8H34.3094L35.9494 21H33.3094L32.9294 17.66H27.9694L26.0894 21H23.1494ZM29.0894 15.62H32.7894L32.2094 10.1L29.0894 15.62ZM43.8948 21.2C42.9348 21.2 42.0482 21.0667 41.2348 20.8C40.4215 20.5333 39.7015 20.1467 39.0748 19.64C38.4615 19.12 37.9548 18.4667 37.5548 17.68L39.4148 16.14C39.6948 16.78 40.0682 17.3133 40.5348 17.74C41.0148 18.1533 41.5482 18.46 42.1348 18.66C42.7215 18.86 43.3215 18.96 43.9348 18.96C44.4415 18.96 44.8548 18.8867 45.1748 18.74C45.5082 18.58 45.7548 18.3733 45.9148 18.12C46.0748 17.8533 46.1548 17.5733 46.1548 17.28C46.1548 16.92 46.0282 16.6333 45.7748 16.42C45.5348 16.2067 45.1682 16.0267 44.6748 15.88L42.6348 15.26C42.0082 15.06 41.4548 14.8 40.9748 14.48C40.4948 14.16 40.1148 13.7667 39.8348 13.3C39.5682 12.8333 39.4348 12.3067 39.4348 11.72C39.4348 10.88 39.6548 10.1533 40.0948 9.54C40.5348 8.91333 41.1348 8.43333 41.8948 8.1C42.6682 7.75333 43.5615 7.58 44.5748 7.58C45.9348 7.58 47.0682 7.83333 47.9748 8.34C48.8948 8.84667 49.6215 9.58 50.1548 10.54L48.2148 12.04C47.9882 11.4933 47.6748 11.06 47.2748 10.74C46.8882 10.4067 46.4615 10.1733 45.9948 10.04C45.5282 9.90667 45.0415 9.84 44.5348 9.84C44.0415 9.84 43.6282 9.91333 43.2948 10.06C42.9615 10.1933 42.7148 10.38 42.5548 10.62C42.3948 10.8467 42.3148 11.1067 42.3148 11.4C42.3148 11.7467 42.4615 12.0533 42.7548 12.32C43.0482 12.5867 43.4348 12.8 43.9148 12.96L46.0548 13.6C47.0415 13.92 47.7815 14.3467 48.2748 14.88C48.7815 15.4133 49.0348 16.1 49.0348 16.94C49.0348 17.82 48.8015 18.58 48.3348 19.22C47.8815 19.86 47.2615 20.3533 46.4748 20.7C45.7015 21.0333 44.8415 21.2 43.8948 21.2ZM64.8083 7.8L61.7483 21H58.9683L62.0283 7.8H64.8083ZM56.3283 7.8L53.2683 21H50.5083L53.5683 7.8H56.3283ZM62.2283 13.22L61.7083 15.44H53.1683L53.6883 13.22H62.2283ZM71.2777 21.2C70.3177 21.2 69.431 21.0667 68.6177 20.8C67.8043 20.5333 67.0843 20.1467 66.4577 19.64C65.8443 19.12 65.3377 18.4667 64.9377 17.68L66.7977 16.14C67.0777 16.78 67.451 17.3133 67.9177 17.74C68.3977 18.1533 68.931 18.46 69.5177 18.66C70.1043 18.86 70.7043 18.96 71.3177 18.96C71.8243 18.96 72.2377 18.8867 72.5577 18.74C72.891 18.58 73.1377 18.3733 73.2977 18.12C73.4577 17.8533 73.5377 17.5733 73.5377 17.28C73.5377 16.92 73.411 16.6333 73.1577 16.42C72.9177 16.2067 72.551 16.0267 72.0577 15.88L70.0177 15.26C69.391 15.06 68.8377 14.8 68.3577 14.48C67.8777 14.16 67.4977 13.7667 67.2177 13.3C66.951 12.8333 66.8177 12.3067 66.8177 11.72C66.8177 10.88 67.0377 10.1533 67.4777 9.54C67.9177 8.91333 68.5177 8.43333 69.2777 8.1C70.051 7.75333 70.9443 7.58 71.9577 7.58C73.3177 7.58 74.451 7.83333 75.3577 8.34C76.2777 8.84667 77.0043 9.58 77.5377 10.54L75.5977 12.04C75.371 11.4933 75.0577 11.06 74.6577 10.74C74.271 10.4067 73.8443 10.1733 73.3777 10.04C72.911 9.90667 72.4243 9.84 71.9177 9.84C71.4243 9.84 71.011 9.91333 70.6777 10.06C70.3443 10.1933 70.0977 10.38 69.9377 10.62C69.7777 10.8467 69.6977 11.1067 69.6977 11.4C69.6977 11.7467 69.8443 12.0533 70.1377 12.32C70.431 12.5867 70.8177 12.8 71.2977 12.96L73.4377 13.6C74.4243 13.92 75.1643 14.3467 75.6577 14.88C76.1643 15.4133 76.4177 16.1 76.4177 16.94C76.4177 17.82 76.1843 18.58 75.7177 19.22C75.2643 19.86 74.6443 20.3533 73.8577 20.7C73.0843 21.0333 72.2243 21.2 71.2777 21.2ZM76.2939 21L84.0939 7.8H87.4539L89.0939 21H86.4539L86.0739 17.66H81.1139L79.2339 21H76.2939ZM82.2339 15.62H85.9339L85.3539 10.1L82.2339 15.62ZM94.257 18.78H101.197L100.677 21H90.977L94.037 7.8H96.797L94.257 18.78ZM102.911 21L105.971 7.8H115.791L115.271 10.02H108.211L107.451 13.3H113.011L112.531 15.42H106.971L106.211 18.78H113.511L112.991 21H102.911Z" fill="white"/>
    <defs>
        <radialGradient id="paint0_radial_2408_105386" cx="0" cy="0" r="1" gradientUnits="userSpaceOnUse" gradientTransform="translate(27.7024 2.51056) rotate(2.78794) scale(20.3888 21.1778)">
            <stop stop-color="#FCD700"/>
            <stop offset="0.2394" stop-color="#F8CA00"/>
            <stop offset="0.6943" stop-color="#F3B501"/>
            <stop offset="1" stop-color="#F1AE01"/>
        </radialGradient>
        <radialGradient id="paint1_radial_2408_105386" cx="0" cy="0" r="1" gradientUnits="userSpaceOnUse" gradientTransform="translate(27.6014 0.558618) rotate(2.64408) scale(6.41986 6.70984)">
            <stop stop-color="#F5BC00"/>
            <stop offset="0.1806" stop-color="#F0A801"/>
            <stop offset="0.5232" stop-color="#E78701"/>
            <stop offset="0.8086" stop-color="#E27202"/>
            <stop offset="1" stop-color="#E06B02"/>
        </radialGradient>
        <radialGradient id="paint2_radial_2408_105386" cx="0" cy="0" r="1" gradientUnits="userSpaceOnUse" gradientTransform="translate(19.1907 13.9052) rotate(2.68289) scale(9.38854 10.0706)">
            <stop stop-color="#F5BC00"/>
            <stop offset="0.1806" stop-color="#F0A801"/>
            <stop offset="0.5232" stop-color="#E78701"/>
            <stop offset="0.8086" stop-color="#E27202"/>
            <stop offset="1" stop-color="#E06B02"/>
        </radialGradient>
        <radialGradient id="paint3_radial_2408_105386" cx="0" cy="0" r="1" gradientUnits="userSpaceOnUse" gradientTransform="translate(27.5979 9.77434) rotate(2.6532) scale(13.1688 13.8309)">
            <stop stop-color="#F5BC00"/>
            <stop offset="0.1806" stop-color="#F0A801"/>
            <stop offset="0.5232" stop-color="#E78701"/>
            <stop offset="0.8086" stop-color="#E27202"/>
            <stop offset="1" stop-color="#E06B02"/>
        </radialGradient>
        <linearGradient id="paint4_linear_2408_105386" x1="23.2896" y1="15.8507" x2="18.9694" y2="3.29924" gradientUnits="userSpaceOnUse">
            <stop stop-color="white"/>
            <stop offset="0.2724" stop-color="#A9A9A9"/>
            <stop offset="0.5786" stop-color="#4F4F4F"/>
            <stop offset="0.794" stop-color="#161616"/>
            <stop offset="0.8973"/>
        </linearGradient>
    </defs>
</svg>
