<svg width="179" height="28" viewBox="0 0 179 28" fill="none" xmlns="http://www.w3.org/2000/svg">
    <path d="M20.692 7.432H9.844L8.596 12.776H17.556L16.724 16.36H7.764L5.748 25H1.332L6.228 3.88H21.524L20.692 7.432Z" fill="url(#paint0_linear_2117_271110)"/>
    <path d="M25.0101 1.99863L21.7457 13.4517L26.1633 13.6668L22.1366 27.3825L33.0237 9.3656L27.8335 9.11286L33.7149 0.200217L25.0101 1.99863Z" fill="url(#paint1_radial_2117_271110)"/>
    <path d="M28.6222 9.27535L34.2881 0.752322L33.7382 0.265838L27.7703 9.23601L28.6222 9.27535Z" fill="url(#paint2_radial_2117_271110)"/>
    <path d="M21.8398 13.377L22.3732 13.8608L25.9874 14.0302L22.09 27.3031L26.1193 13.5775L21.8398 13.377Z" fill="url(#paint3_radial_2117_271110)"/>
    <path d="M22.2032 27.4134L22.7496 27.8991L33.7401 9.79548L33.1938 9.30977L22.2032 27.4134Z" fill="url(#paint4_radial_2117_271110)"/>
    <g style="mix-blend-mode:screen">
        <path d="M27.7157 9.1746L33.7142 0.210007L24.8381 2.01742L21.9608 11.9777C23.7625 12.3103 25.7148 12.2067 27.6602 11.5813C29.1852 11.0915 30.55 10.3242 31.7125 9.3674L27.7157 9.1746Z" fill="url(#paint5_linear_2117_271110)"/>
    </g>
    <path d="M30.339 25L42.819 3.88H48.195L50.819 25H46.595L45.987 19.656H38.051L35.043 25H30.339ZM39.843 16.392H45.763L44.835 7.56L39.843 16.392ZM63.5318 25.32C61.9958 25.32 60.5771 25.1067 59.2758 24.68C57.9744 24.2533 56.8224 23.6347 55.8198 22.824C54.8384 21.992 54.0278 20.9467 53.3878 19.688L56.3638 17.224C56.8118 18.248 57.4091 19.1013 58.1558 19.784C58.9238 20.4453 59.7771 20.936 60.7158 21.256C61.6544 21.576 62.6144 21.736 63.5958 21.736C64.4064 21.736 65.0678 21.6187 65.5798 21.384C66.1131 21.128 66.5078 20.7973 66.7638 20.392C67.0198 19.9653 67.1478 19.5173 67.1478 19.048C67.1478 18.472 66.9451 18.0133 66.5398 17.672C66.1558 17.3307 65.5691 17.0427 64.7798 16.808L61.5158 15.816C60.5131 15.496 59.6278 15.08 58.8598 14.568C58.0918 14.056 57.4838 13.4267 57.0358 12.68C56.6091 11.9333 56.3958 11.0907 56.3958 10.152C56.3958 8.808 56.7478 7.64533 57.4518 6.664C58.1558 5.66133 59.1158 4.89333 60.3318 4.36C61.5691 3.80533 62.9984 3.528 64.6198 3.528C66.7958 3.528 68.6091 3.93333 70.0598 4.744C71.5318 5.55467 72.6944 6.728 73.5478 8.264L70.4438 10.664C70.0811 9.78933 69.5798 9.096 68.9398 8.584C68.3211 8.05067 67.6384 7.67733 66.8918 7.464C66.1451 7.25067 65.3664 7.144 64.5558 7.144C63.7664 7.144 63.1051 7.26133 62.5718 7.496C62.0384 7.70933 61.6438 8.008 61.3878 8.392C61.1318 8.75467 61.0038 9.17067 61.0038 9.64C61.0038 10.1947 61.2384 10.6853 61.7078 11.112C62.1771 11.5387 62.7958 11.88 63.5638 12.136L66.9878 13.16C68.5664 13.672 69.7504 14.3547 70.5398 15.208C71.3504 16.0613 71.7558 17.16 71.7558 18.504C71.7558 19.912 71.3824 21.128 70.6358 22.152C69.9104 23.176 68.9184 23.9653 67.6598 24.52C66.4224 25.0533 65.0464 25.32 63.5318 25.32ZM96.9933 3.88L92.0972 25H87.6493L92.5453 3.88H96.9933ZM83.4253 3.88L78.5293 25H74.1133L79.0093 3.88H83.4253ZM92.8653 12.552L92.0333 16.104H78.3693L79.2013 12.552H92.8653ZM107.344 25.32C105.808 25.32 104.39 25.1067 103.088 24.68C101.787 24.2533 100.635 23.6347 99.6323 22.824C98.6509 21.992 97.8403 20.9467 97.2003 19.688L100.176 17.224C100.624 18.248 101.222 19.1013 101.968 19.784C102.736 20.4453 103.59 20.936 104.528 21.256C105.467 21.576 106.427 21.736 107.408 21.736C108.219 21.736 108.88 21.6187 109.392 21.384C109.926 21.128 110.32 20.7973 110.576 20.392C110.832 19.9653 110.96 19.5173 110.96 19.048C110.96 18.472 110.758 18.0133 110.352 17.672C109.968 17.3307 109.382 17.0427 108.592 16.808L105.328 15.816C104.326 15.496 103.44 15.08 102.672 14.568C101.904 14.056 101.296 13.4267 100.848 12.68C100.422 11.9333 100.208 11.0907 100.208 10.152C100.208 8.808 100.56 7.64533 101.264 6.664C101.968 5.66133 102.928 4.89333 104.144 4.36C105.382 3.80533 106.811 3.528 108.432 3.528C110.608 3.528 112.422 3.93333 113.872 4.744C115.344 5.55467 116.507 6.728 117.36 8.264L114.256 10.664C113.894 9.78933 113.392 9.096 112.752 8.584C112.134 8.05067 111.451 7.67733 110.704 7.464C109.958 7.25067 109.179 7.144 108.368 7.144C107.579 7.144 106.918 7.26133 106.384 7.496C105.851 7.70933 105.456 8.008 105.2 8.392C104.944 8.75467 104.816 9.17067 104.816 9.64C104.816 10.1947 105.051 10.6853 105.52 11.112C105.99 11.5387 106.608 11.88 107.376 12.136L110.8 13.16C112.379 13.672 113.563 14.3547 114.352 15.208C115.163 16.0613 115.568 17.16 115.568 18.504C115.568 19.912 115.195 21.128 114.448 22.152C113.723 23.176 112.731 23.9653 111.472 24.52C110.235 25.0533 108.859 25.32 107.344 25.32ZM115.37 25L127.85 3.88H133.226L135.85 25H131.626L131.018 19.656H123.082L120.074 25H115.37ZM124.874 16.392H130.794L129.866 7.56L124.874 16.392ZM144.111 21.448H155.215L154.383 25H138.863L143.759 3.88H148.175L144.111 21.448ZM157.957 25L162.853 3.88H178.565L177.733 7.432H166.437L165.221 12.68H174.117L173.349 16.072H164.453L163.237 21.448H174.917L174.085 25H157.957Z" fill="url(#paint6_linear_2117_271110)"/>
    <defs>
        <linearGradient id="paint0_linear_2117_271110" x1="0.499999" y1="-4.66666" x2="22.0977" y2="-3.17195" gradientUnits="userSpaceOnUse">
            <stop stop-color="#8A25B3"/>
            <stop offset="0.489583" stop-color="#EB50A5"/>
            <stop offset="1" stop-color="#FD8153"/>
        </linearGradient>
        <radialGradient id="paint1_radial_2117_271110" cx="0" cy="0" r="1" gradientUnits="userSpaceOnUse" gradientTransform="translate(35.2063 2.51105) rotate(2.78794) scale(20.3888 21.1778)">
            <stop stop-color="#FCD700"/>
            <stop offset="0.2394" stop-color="#F8CA00"/>
            <stop offset="0.6943" stop-color="#F3B501"/>
            <stop offset="1" stop-color="#F1AE01"/>
        </radialGradient>
        <radialGradient id="paint2_radial_2117_271110" cx="0" cy="0" r="1" gradientUnits="userSpaceOnUse" gradientTransform="translate(35.1033 0.559594) rotate(2.64408) scale(6.41986 6.70984)">
            <stop stop-color="#F5BC00"/>
            <stop offset="0.1806" stop-color="#F0A801"/>
            <stop offset="0.5232" stop-color="#E78701"/>
            <stop offset="0.8086" stop-color="#E27202"/>
            <stop offset="1" stop-color="#E06B02"/>
        </radialGradient>
        <radialGradient id="paint3_radial_2117_271110" cx="0" cy="0" r="1" gradientUnits="userSpaceOnUse" gradientTransform="translate(26.6907 13.9052) rotate(2.68289) scale(9.38854 10.0706)">
            <stop stop-color="#F5BC00"/>
            <stop offset="0.1806" stop-color="#F0A801"/>
            <stop offset="0.5232" stop-color="#E78701"/>
            <stop offset="0.8086" stop-color="#E27202"/>
            <stop offset="1" stop-color="#E06B02"/>
        </radialGradient>
        <radialGradient id="paint4_radial_2117_271110" cx="0" cy="0" r="1" gradientUnits="userSpaceOnUse" gradientTransform="translate(35.0979 9.77434) rotate(2.6532) scale(13.1688 13.8309)">
            <stop stop-color="#F5BC00"/>
            <stop offset="0.1806" stop-color="#F0A801"/>
            <stop offset="0.5232" stop-color="#E78701"/>
            <stop offset="0.8086" stop-color="#E27202"/>
            <stop offset="1" stop-color="#E06B02"/>
        </radialGradient>
        <linearGradient id="paint5_linear_2117_271110" x1="30.7896" y1="15.8512" x2="26.4694" y2="3.29973" gradientUnits="userSpaceOnUse">
            <stop stop-color="white"/>
            <stop offset="0.2724" stop-color="#A9A9A9"/>
            <stop offset="0.5786" stop-color="#4F4F4F"/>
            <stop offset="0.794" stop-color="#161616"/>
            <stop offset="0.8973"/>
        </linearGradient>
        <linearGradient id="paint6_linear_2117_271110" x1="31.5" y1="-4.66666" x2="161.493" y2="64.4634" gradientUnits="userSpaceOnUse">
            <stop stop-color="#8A25B3"/>
            <stop offset="0.489583" stop-color="#EB50A5"/>
            <stop offset="1" stop-color="#FD8153"/>
        </linearGradient>
    </defs>
</svg>
