<svg width="18" height="18" viewBox="0 0 18 18" fill="none" xmlns="http://www.w3.org/2000/svg">
<path d="M7.9268 0C3.55608 0 0 3.55608 0 7.9268C0 12.2978 3.55608 15.8536 7.9268 15.8536C12.2978 15.8536 15.8536 12.2978 15.8536 7.9268C15.8536 3.55608 12.2978 0 7.9268 0ZM7.9268 14.3902C4.36291 14.3902 1.46341 11.4907 1.46341 7.92684C1.46341 4.36295 4.36291 1.46341 7.9268 1.46341C11.4907 1.46341 14.3902 4.36291 14.3902 7.9268C14.3902 11.4907 11.4907 14.3902 7.9268 14.3902Z" fill="#16171A"/>
<path d="M17.7855 16.7511L13.5903 12.5559C13.3045 12.2701 12.8416 12.2701 12.5557 12.5559C12.2698 12.8416 12.2698 13.305 12.5557 13.5906L16.7508 17.7857C16.8937 17.9286 17.0808 18.0001 17.2681 18.0001C17.4552 18.0001 17.6425 17.9286 17.7855 17.7857C18.0713 17.5001 18.0713 17.0367 17.7855 16.7511Z" fill="#16171A"/>
</svg>
