<svg width="16" height="16" viewBox="0 0 16 16" fill="none" xmlns="http://www.w3.org/2000/svg">
    <path d="M7.99967 15.1654C4.04634 15.1654 0.833008 11.952 0.833008 7.9987C0.833008 4.04536 4.04634 0.832031 7.99967 0.832031C11.953 0.832031 15.1663 4.04536 15.1663 7.9987C15.1663 11.952 11.953 15.1654 7.99967 15.1654ZM7.99967 1.83203C4.59967 1.83203 1.83301 4.5987 1.83301 7.9987C1.83301 11.3987 4.59967 14.1654 7.99967 14.1654C11.3997 14.1654 14.1663 11.3987 14.1663 7.9987C14.1663 4.5987 11.3997 1.83203 7.99967 1.83203Z" fill="#17204D"/>
    <path d="M6.11357 10.3849C5.9869 10.3849 5.86023 10.3383 5.76023 10.2383C5.5669 10.0449 5.5669 9.72495 5.76023 9.53162L9.53357 5.75828C9.7269 5.56495 10.0469 5.56495 10.2402 5.75828C10.4336 5.95161 10.4336 6.27161 10.2402 6.46495L6.4669 10.2383C6.37357 10.3383 6.24023 10.3849 6.11357 10.3849Z" fill="#17204D"/>
    <path d="M9.8869 10.3849C9.76023 10.3849 9.63357 10.3383 9.53357 10.2383L5.76023 6.46495C5.5669 6.27161 5.5669 5.95161 5.76023 5.75828C5.95357 5.56495 6.27357 5.56495 6.4669 5.75828L10.2402 9.53162C10.4336 9.72495 10.4336 10.0449 10.2402 10.2383C10.1402 10.3383 10.0136 10.3849 9.8869 10.3849Z" fill="#17204D"/>
</svg>
